<?xml version="1.0" encoding="utf-8"?>
<!-- Generator: Adobe Illustrator 18.0.0, SVG Export Plug-In . SVG Version: 6.00 Build 0)  -->
<!DOCTYPE svg PUBLIC "-//W3C//DTD SVG 1.1//EN" "http://www.w3.org/Graphics/SVG/1.1/DTD/svg11.dtd">
<svg version="1.1" id="Layer_2" xmlns="http://www.w3.org/2000/svg" xmlns:xlink="http://www.w3.org/1999/xlink" x="0px" y="0px"
	 viewBox="0 0 500 500" enable-background="new 0 0 500 500" xml:space="preserve">
<g>
	<rect fill="#32281F" width="500" height="500"/>
	<path fill="#FF00CC" d="M414.6,56.3c-25.6-4.5-54.6-10-94.1-10C192,46.2,111,120.3,111,228.6c0,68.8,26.5,131.9,133.8,220
		c0,0,26.6,23.1,54.5,51.4h133.8c-22.6-32.1-54.9-67.6-103.4-105.8l-29.4-23.4c-97.2-75.9-123.5-113.3-123.5-171
		c0-73.9,54.6-117.9,124.5-117.9c93.1,0,120.4,42.3,126.5,53.4c6.1,11.1,12.1,38.3,13.2,50.5c0.2,1.3,0.3,2.5,0.5,3.7l13.7,0.6
		c0.3-3.4,0.8-23.5,0.9-29.5c1.4-69,3.8-87.2,4-92.2c0.2-2.7,0.6-6.8,0.6-6.8S441.5,61,414.6,56.3z"/>
</g>
</svg>
